<svg xmlns="http://www.w3.org/2000/svg" width="19" height="19" viewBox="0 0 19 19" fill="none">
  <g clip-path="url(#clip0_201_1242)">
    <path fill-rule="evenodd" clip-rule="evenodd" d="M9.49307 19C4.25456 19 0 14.7316 0 9.49307C0 7.04012 0.928519 4.71189 2.61926 2.938C2.61926 2.938 2.61926 2.938 2.63311 2.92414L2.92414 2.63311C2.92414 2.63311 2.92414 2.63311 2.938 2.61926C4.72575 0.928519 7.05398 0 9.49307 0C14.7316 0 19 4.26842 19 9.49307C19 11.946 18.0715 14.2743 16.3807 16.0481C16.3807 16.0481 16.3807 16.0481 16.3669 16.062L16.0759 16.353C16.0759 16.353 16.0759 16.353 16.062 16.3669C14.2881 18.0576 11.9599 18.9861 9.50693 18.9861L9.49307 19ZM3.02115 3.47848C1.49672 5.12764 0.651349 7.24799 0.651349 9.49307C0.651349 14.3713 4.61488 18.3348 9.49307 18.3348C11.7381 18.3348 13.8724 17.4894 15.5077 15.965L3.02115 3.47848ZM15.9788 15.5215C17.5033 13.8862 18.3486 11.752 18.3486 9.50693C18.3486 4.62874 14.3713 0.651349 9.49307 0.651349C7.24799 0.651349 5.11379 1.49672 3.47848 3.02115L15.9788 15.5215Z" fill="#0B2417"/>
    <path d="M9.88095 15.5077H5.98671C5.82041 15.5077 5.66797 15.3829 5.66797 15.2305V6.72137C5.66797 6.65208 5.69569 6.59664 5.73726 6.55507L7.20626 4.78118V3.64478C7.20626 3.49234 7.34485 3.36761 7.52501 3.36761H11.4192C11.5855 3.36761 11.738 3.49234 11.738 3.64478V4.78118L12.9853 6.4442C12.9853 6.4442 13.0407 6.54121 13.0407 6.6105V15.0503C13.0407 15.2028 12.916 15.3275 12.7497 15.3275L9.90867 15.5215C9.90867 15.5215 9.89481 15.5215 9.88095 15.5215V15.5077ZM6.30546 14.9395H9.57606L9.61764 7.06783L6.31932 7.0124V14.9395H6.30546ZM10.2413 6.87381L10.1997 14.9117L12.4171 14.7593V6.6798L11.4192 5.34938L10.2413 6.87381ZM6.61035 6.4442L9.77008 6.49963L10.8233 5.1415H7.69131L6.61035 6.4442ZM7.84375 4.5733H11.1005V3.9081H7.84375V4.5733Z" fill="#0B2417"/>
  </g>
  <defs>
    <clipPath id="clip0_201_1242">
      <rect width="19" height="19" fill="white"/>
    </clipPath>
  </defs>
</svg>