<svg xmlns="http://www.w3.org/2000/svg" width="19" height="19" viewBox="0 0 19 19" fill="none">
  <g clip-path="url(#clip0_201_1275)">
    <path fill-rule="evenodd" clip-rule="evenodd" d="M9.49307 19C4.25456 19 0 14.7316 0 9.49307C0 7.04012 0.928519 4.71189 2.61926 2.938C2.61926 2.938 2.61926 2.938 2.63311 2.92414L2.92414 2.63311C2.92414 2.63311 2.92414 2.63311 2.938 2.61926C4.72575 0.928519 7.05398 0 9.49307 0C14.7316 0 19 4.26842 19 9.49307C19 11.946 18.0715 14.2743 16.3807 16.0481C16.3807 16.0481 16.3807 16.0481 16.3669 16.062L16.0759 16.353C16.0759 16.353 16.0759 16.353 16.062 16.3669C14.2881 18.0576 11.9599 18.9861 9.50693 18.9861L9.49307 19ZM3.02115 3.47848C1.49672 5.12764 0.651349 7.24799 0.651349 9.49307C0.651349 14.3713 4.61488 18.3348 9.49307 18.3348C11.7381 18.3348 13.8724 17.4894 15.5077 15.965L3.02115 3.47848ZM15.9788 15.5215C17.5033 13.8862 18.3486 11.752 18.3486 9.50693C18.3486 4.62874 14.3713 0.651349 9.49307 0.651349C7.24799 0.651349 5.11379 1.49672 3.47848 3.02115L15.9788 15.5215Z" fill="#0B2417"/>
    <path d="M7.46973 7.95478C7.46973 7.95478 7.5113 7.95478 7.53902 7.95478L9.7148 10.1306V11.4055C9.81181 11.0452 9.9504 10.7542 10.1306 10.5463L11.0036 11.4194C10.7126 11.6689 10.2969 11.8352 9.7148 11.946V13.2903C9.96426 12.3756 10.4077 11.9737 11.364 11.7797L11.6411 12.0569C11.3917 13.1656 10.9344 13.5952 9.7148 13.8308V15.1196H9.46535V13.8308C8.16265 13.609 7.71918 13.124 7.46973 11.7104C8.68927 11.9183 9.20204 12.3063 9.46535 13.2903V11.946C8.16265 11.7243 7.71918 11.2392 7.46973 9.82567C8.68927 10.0336 9.20204 10.4216 9.46535 11.4055V10.0613C8.16265 9.83953 7.71918 9.35448 7.46973 7.94092V7.95478Z" fill="#0B2417"/>
    <path d="M9.59008 3.97742C10.38 5.11381 10.4077 5.76516 9.7148 6.81841V7.69149C10.0058 6.66597 10.5047 6.30564 11.7104 6.11163C11.4748 7.48362 11.0452 7.96866 9.7148 8.23198V9.28522L9.46535 9.03577V8.23198C8.16265 8.01024 7.71918 7.52519 7.46973 6.11163C8.68927 6.3195 9.20204 6.70754 9.46535 7.69149V6.81841C8.75857 5.77902 8.80014 5.12767 9.59008 3.97742Z" fill="#0B2417"/>
    <path d="M9.64551 9.60392C9.93654 8.57839 10.4354 8.21807 11.6411 8.02405C11.4055 9.39604 10.9759 9.88109 9.64551 10.1444V9.60392Z" fill="#0B2417"/>
    <path d="M9.70117 11.4471C9.9922 10.4216 10.4911 10.0613 11.6968 9.86725C11.4612 11.2392 11.0316 11.7243 9.70117 11.9876V11.4471Z" fill="#0B2417"/>
  </g>
  <defs>
    <clipPath id="clip0_201_1275">
      <rect width="19" height="19" fill="white"/>
    </clipPath>
  </defs>
</svg>