<svg xmlns="http://www.w3.org/2000/svg" width="19" height="19" viewBox="0 0 19 19" fill="none">
  <g clip-path="url(#clip0_201_1349)">
    <path d="M9.24055 12.0797C9.1996 8.92669 8.63997 6.93388 4.95463 5.50069C4.83178 5.44609 4.68164 5.55528 4.68164 5.69178C4.68164 8.98129 4.95463 11.4791 9.18595 12.9533L6.18308 7.90298L9.24055 12.0934V12.0797Z" fill="#0B2417"/>
    <path d="M9.5 13.8678L12.7622 8.95396L10.2644 13.9087C13.2399 12.6393 14.9734 11.4382 14.755 7.19319C14.755 7.05669 14.6049 6.96115 14.4684 7.01574C11.4519 8.31244 9.3635 9.75928 9.48635 13.8678H9.5Z" fill="#0B2417"/>
    <path d="M9.5 0.682471C14.3592 0.682471 18.3175 4.6408 18.3175 9.5C18.3175 14.3592 14.3592 18.3175 9.5 18.3175C4.6408 18.3175 0.682471 14.3592 0.682471 9.5C0.682471 4.6408 4.6408 0.682471 9.5 0.682471ZM9.5 0C4.25862 0 0 4.25862 0 9.5C0 14.7414 4.25862 19 9.5 19C14.7414 19 19 14.7414 19 9.5C19 4.25862 14.7414 0 9.5 0Z" fill="#0B2417"/>
  </g>
  <defs>
    <clipPath id="clip0_201_1349">
      <rect width="19" height="19" fill="white"/>
    </clipPath>
  </defs>
</svg>