<svg xmlns="http://www.w3.org/2000/svg" width="19" height="19" viewBox="0 0 19 19" fill="none">
  <g clip-path="url(#clip0_201_1265)">
    <g opacity="0.5">
      <path d="M9.24055 12.0798C9.1996 8.92675 8.63997 6.93394 4.95463 5.50075C4.83178 5.44615 4.68164 5.55534 4.68164 5.69184C4.68164 8.98135 4.95463 11.4792 9.18595 12.9533L6.18308 7.90305L9.24055 12.0934V12.0798Z" fill="#0B2417"/>
      <path d="M9.49975 13.8678L12.762 8.95402L10.2641 13.9088C13.2397 12.6394 14.9732 11.4382 14.7548 7.19325C14.7548 7.05675 14.6046 6.96121 14.4681 7.0158C11.4516 8.3125 9.36326 9.75934 9.4861 13.8678H9.49975Z" fill="#0B2417"/>
    </g>
    <path d="M9.5 0.682471C14.3592 0.682471 18.3175 4.6408 18.3175 9.5C18.3175 14.3592 14.3592 18.3175 9.5 18.3175C4.6408 18.3175 0.682471 14.3592 0.682471 9.5C0.682471 4.6408 4.6408 0.682471 9.5 0.682471ZM9.5 0C4.24497 0 0 4.25862 0 9.5C0 14.7414 4.24497 19 9.5 19C14.755 19 19 14.7414 19 9.5C19 4.25862 14.7414 0 9.5 0Z" fill="#0B2417"/>
  </g>
  <defs>
    <clipPath id="clip0_201_1265">
      <rect width="19" height="19" fill="white"/>
    </clipPath>
  </defs>
</svg>