<svg width="19" height="26" viewBox="0 0 19 26" fill="none" xmlns="http://www.w3.org/2000/svg">
<rect width="19" height="26" fill="#E5E5E5"/>
<rect width="375" height="812" transform="translate(-169 -57)" fill="#ededed"/>
<g clip-path="url(#clip0_0_1)">
<path fill-rule="evenodd" clip-rule="evenodd" d="M9.49307 19C4.25456 19 0 14.7316 0 9.49307C0 7.04012 0.928519 4.71189 2.61926 2.938C2.61926 2.938 2.61926 2.938 2.63311 2.92414L2.92414 2.63311C2.92414 2.63311 2.92414 2.63311 2.938 2.61926C4.72575 0.928519 7.05398 0 9.49307 0C14.7316 0 19 4.26842 19 9.49307C19 11.946 18.0715 14.2743 16.3807 16.0481C16.3807 16.0481 16.3807 16.0481 16.3669 16.062L16.0759 16.353C16.0759 16.353 16.0759 16.353 16.062 16.3669C14.2881 18.0576 11.9599 18.9861 9.50693 18.9861L9.49307 19ZM3.02115 3.47848C1.49672 5.12764 0.651349 7.24799 0.651349 9.49307C0.651349 14.3713 4.61488 18.3348 9.49307 18.3348C11.7381 18.3348 13.8724 17.4894 15.5077 15.965L3.02115 3.47848ZM15.9788 15.5215C17.5033 13.8862 18.3486 11.752 18.3486 9.50693C18.3486 4.62874 14.3713 0.651349 9.49307 0.651349C7.24799 0.651349 5.11379 1.49672 3.47848 3.02115L15.9788 15.5215Z" fill="#0B2417"/>
<path d="M9.88095 15.5077H5.98671C5.82041 15.5077 5.66797 15.3829 5.66797 15.2305V6.72137C5.66797 6.65208 5.69569 6.59664 5.73726 6.55507L7.20626 4.78118V3.64478C7.20626 3.49234 7.34485 3.36761 7.52501 3.36761H11.4192C11.5855 3.36761 11.738 3.49234 11.738 3.64478V4.78118L12.9853 6.4442C12.9853 6.4442 13.0407 6.54121 13.0407 6.6105V15.0503C13.0407 15.2028 12.916 15.3275 12.7497 15.3275L9.90867 15.5215C9.90867 15.5215 9.89481 15.5215 9.88095 15.5215V15.5077ZM6.30546 14.9395H9.57606L9.61764 7.06783L6.31932 7.0124V14.9395H6.30546ZM10.2413 6.87381L10.1997 14.9117L12.4171 14.7593V6.6798L11.4192 5.34938L10.2413 6.87381ZM6.61035 6.4442L9.77008 6.49963L10.8233 5.1415H7.69131L6.61035 6.4442ZM7.84375 4.5733H11.1005V3.9081H7.84375V4.5733Z" fill="#0B2417"/>
</g>
<path d="M4.57331 22.7052C4.57331 23.3394 4.40701 23.8357 4.08826 24.1941C3.76952 24.5525 3.32604 24.7317 2.75785 24.7317C2.18965 24.7317 1.71846 24.5525 1.41357 24.1941C1.10868 23.8357 0.942383 23.3394 0.942383 22.6914C0.942383 22.0435 1.09483 21.5472 1.41357 21.2026C1.73232 20.8579 2.17579 20.6787 2.7717 20.6787C3.36762 20.6787 3.78338 20.8579 4.10212 21.2164C4.42087 21.5748 4.58717 22.0711 4.58717 22.7052H4.57331ZM1.41357 22.7052C1.41357 23.2429 1.52444 23.6427 1.76003 23.9184C1.99563 24.1941 2.31437 24.3319 2.75785 24.3319C3.20132 24.3319 3.53392 24.1941 3.75566 23.9184C3.97739 23.6427 4.08826 23.2429 4.08826 22.7052C4.08826 22.1676 3.97739 21.7678 3.75566 21.5059C3.53392 21.2439 3.20132 21.0923 2.7717 21.0923C2.34209 21.0923 1.99563 21.2301 1.77389 21.5059C1.55216 21.7816 1.42743 22.1814 1.42743 22.7052H1.41357Z" fill="#0B2417"/>
<path d="M6.7631 24.7317C6.56909 24.7317 6.38892 24.6904 6.23648 24.6214C6.08404 24.5525 5.94545 24.4422 5.83459 24.2906H5.80687C5.83459 24.456 5.83459 24.6214 5.83459 24.7869V26H5.39111V21.7264H5.75143L5.80687 22.1262H5.83459C5.94545 21.9608 6.08404 21.8505 6.23648 21.7816C6.38892 21.7126 6.56909 21.6713 6.7631 21.6713C7.15114 21.6713 7.45603 21.8091 7.67777 22.0711C7.8995 22.333 7.99651 22.719 7.99651 23.2015C7.99651 23.684 7.88564 24.0562 7.66391 24.3319C7.44217 24.6076 7.13728 24.7317 6.7631 24.7317ZM6.69381 22.0573C6.38892 22.0573 6.16719 22.14 6.04246 22.3054C5.91774 22.4708 5.83459 22.7328 5.83459 23.105V23.2015C5.83459 23.6151 5.90388 23.9183 6.04246 24.0976C6.18105 24.2768 6.40278 24.3595 6.70767 24.3595C6.95712 24.3595 7.165 24.263 7.30359 24.0562C7.44217 23.8494 7.52532 23.5599 7.52532 23.2015C7.52532 22.8431 7.45603 22.5536 7.30359 22.3606C7.15114 22.1676 6.95712 22.0711 6.69381 22.0711V22.0573Z" fill="#0B2417"/>
<path d="M9.74271 24.3733C9.82586 24.3733 9.89515 24.3733 9.97831 24.3595C10.0615 24.3457 10.1169 24.3319 10.1585 24.3181V24.6628C10.1585 24.6628 10.0337 24.7041 9.93673 24.7179C9.83972 24.7317 9.75657 24.7455 9.68728 24.7455C9.11908 24.7455 8.82805 24.4422 8.82805 23.8494V22.0986H8.39844V21.8781L8.82805 21.6988L9.02207 21.0647H9.28538V21.754H10.1446V22.0986H9.28538V23.8356C9.28538 24.0149 9.32696 24.1527 9.41011 24.2492C9.49326 24.3457 9.61799 24.3871 9.75657 24.3871L9.74271 24.3733Z" fill="#0B2417"/>
<path d="M10.6987 20.9268C10.6987 20.8303 10.7264 20.7476 10.768 20.7063C10.8096 20.6649 10.8789 20.6373 10.962 20.6373C11.0313 20.6373 11.1006 20.6649 11.1422 20.7063C11.1838 20.7476 11.2254 20.8303 11.2254 20.9268C11.2254 21.0233 11.1976 21.106 11.1422 21.1474C11.0868 21.1888 11.0313 21.2163 10.962 21.2163C10.8927 21.2163 10.8235 21.1888 10.768 21.1474C10.7126 21.106 10.6987 21.0233 10.6987 20.9268ZM11.1838 24.6766H10.7403V21.7264H11.1838V24.6766Z" fill="#0B2417"/>
<path d="M14.7041 23.2015C14.7041 23.684 14.5793 24.0562 14.3437 24.3319C14.1081 24.6076 13.7617 24.7317 13.3321 24.7317C13.0688 24.7317 12.8332 24.6766 12.6253 24.5525C12.4174 24.4284 12.265 24.2492 12.1541 24.0148C12.0432 23.7805 11.9878 23.5186 11.9878 23.2015C11.9878 22.719 12.1125 22.3468 12.3481 22.0711C12.5837 21.7953 12.9302 21.6713 13.3598 21.6713C13.7894 21.6713 14.1081 21.8091 14.3437 22.0848C14.5793 22.3606 14.7041 22.7328 14.7041 23.2015ZM12.4451 23.2015C12.4451 23.5737 12.5144 23.8632 12.6669 24.0562C12.8193 24.2492 13.041 24.3457 13.3321 24.3457C13.6231 24.3457 13.8448 24.2492 13.9973 24.0562C14.1497 23.8632 14.2329 23.5737 14.2329 23.1877C14.2329 22.8017 14.1636 22.526 13.9973 22.333C13.831 22.14 13.6231 22.0435 13.3182 22.0435C13.0133 22.0435 12.8054 22.14 12.653 22.333C12.5006 22.526 12.4313 22.8155 12.4313 23.1877L12.4451 23.2015Z" fill="#0B2417"/>
<path d="M17.517 24.6766V22.7741C17.517 22.5398 17.4616 22.3605 17.3507 22.2365C17.2398 22.1124 17.0735 22.0573 16.8379 22.0573C16.533 22.0573 16.2974 22.14 16.1589 22.3054C16.0203 22.4708 15.9371 22.7465 15.9371 23.1326V24.6766H15.4937V21.7264H15.854L15.9233 22.1262H15.951C16.048 21.9745 16.1727 21.8643 16.339 21.7815C16.5053 21.6988 16.6855 21.6575 16.8934 21.6575C17.2537 21.6575 17.517 21.7402 17.6972 21.9194C17.8773 22.0986 17.9743 22.3605 17.9743 22.7465V24.6766H17.5309H17.517Z" fill="#0B2417"/>
<defs>
<clipPath id="clip0_0_1">
<rect width="19" height="19" fill="white"/>
</clipPath>
</defs>
</svg>
